<svg width="64" height="37" viewBox="0 0 64 37" fill="none" xmlns="http://www.w3.org/2000/svg">
<g clip-path="url(#clip0)">
<path opacity="0.3" d="M23.3391 16.1214L16.0825 27.0824C15.8708 27.434 16.0894 27.891 16.4902 27.936L30.8081 29.4878L23.3391 16.1214ZM16.5094 23.1787L21.6856 14.5759L16.4166 11.343C16.2331 11.2305 16 11.3655 16 11.5841V23.0317C16 23.3151 16.3637 23.4205 16.5094 23.1787ZM17.2547 30.7844L30.6197 36.948C30.9841 37.1202 31.4 36.8474 31.4 36.4375V31.8201L17.4059 30.2521C17.1 30.217 16.9776 30.6452 17.2547 30.7844ZM22.8386 12.6592L28.3337 2.60875C28.6321 2.11234 28.0869 1.53648 27.5926 1.82547L17.2244 8.75898C17.0546 8.87289 17.0601 9.12883 17.2334 9.2357L22.8386 12.6592ZM32.5 13.375H40.0082L33.4371 1.53578C33.2219 1.17859 32.8609 1 32.5 1C32.1391 1 31.7781 1.17859 31.5629 1.53578L24.9918 13.375H32.5ZM48.5834 11.343L43.3144 14.5766L48.4906 23.1794C48.6356 23.4212 49 23.3158 49 23.0317V11.5841C49 11.3655 48.7669 11.2305 48.5834 11.343ZM42.1614 12.6592L47.7666 9.235C47.9406 9.12813 47.9454 8.87219 47.7756 8.75828L37.4074 1.82547C36.9131 1.53648 36.3679 2.11234 36.6663 2.60875L42.1614 12.6592ZM47.5941 30.2521L33.6 31.8194V36.4368C33.6 36.8474 34.0159 37.1195 34.3803 36.9473L47.7453 30.7837C48.0224 30.6452 47.9 30.217 47.5941 30.2521ZM41.6609 16.1214L34.1926 29.4878L48.5105 27.936C48.9113 27.8903 49.1299 27.434 48.9182 27.0824L41.6609 16.1214ZM32.5 15.625H25.5954L32.5 27.9824L39.4046 15.625H32.5Z" fill="#C1D2C8"/>
</g>
<g clip-path="url(#clip1)">
<path d="M23.3391 15.1214L16.0825 26.0824C15.8708 26.434 16.0894 26.891 16.4902 26.936L30.8081 28.4878L23.3391 15.1214ZM16.5094 22.1787L21.6856 13.5759L16.4166 10.343C16.2331 10.2305 16 10.3655 16 10.5841V22.0317C16 22.3151 16.3637 22.4205 16.5094 22.1787ZM17.2547 29.7844L30.6197 35.948C30.9841 36.1202 31.4 35.8474 31.4 35.4375V30.8201L17.4059 29.2521C17.1 29.217 16.9776 29.6452 17.2547 29.7844ZM22.8386 11.6592L28.3337 1.60875C28.6321 1.11234 28.0869 0.536484 27.5926 0.825469L17.2244 7.75898C17.0546 7.87289 17.0601 8.12883 17.2334 8.2357L22.8386 11.6592ZM32.5 12.375H40.0082L33.4371 0.535781C33.2219 0.178594 32.8609 0 32.5 0C32.1391 0 31.7781 0.178594 31.5629 0.535781L24.9918 12.375H32.5ZM48.5834 10.343L43.3144 13.5766L48.4906 22.1794C48.6356 22.4212 49 22.3158 49 22.0317V10.5841C49 10.3655 48.7669 10.2305 48.5834 10.343ZM42.1614 11.6592L47.7666 8.235C47.9406 8.12813 47.9454 7.87219 47.7756 7.75828L37.4074 0.825469C36.9131 0.536484 36.3679 1.11234 36.6663 1.60875L42.1614 11.6592ZM47.5941 29.2521L33.6 30.8194V35.4368C33.6 35.8474 34.0159 36.1195 34.3803 35.9473L47.7453 29.7837C48.0224 29.6452 47.9 29.217 47.5941 29.2521ZM41.6609 15.1214L34.1926 28.4878L48.5105 26.936C48.9113 26.8903 49.1299 26.434 48.9182 26.0824L41.6609 15.1214ZM32.5 14.625H25.5954L32.5 26.9824L39.4046 14.625H32.5Z" fill="#9A67BD"/>
</g>
<path d="M2.43896 9.82837H11.6125C12.7332 9.82837 13.7073 9.94922 14.5349 10.1909C15.3699 10.4253 16.062 10.7512 16.6113 11.1687C17.1606 11.5862 17.5671 12.0842 17.8308 12.6628C18.1018 13.2341 18.2373 13.853 18.2373 14.5195C18.2373 15.6108 17.8931 16.5667 17.2046 17.387C17.9956 17.8557 18.5852 18.4636 18.9734 19.2107C19.3616 19.9578 19.5557 20.8074 19.5557 21.7595C19.5557 22.5579 19.4202 23.2793 19.1492 23.9238C18.8855 24.5684 18.479 25.1213 17.9297 25.5828C17.3877 26.0369 16.6992 26.3884 15.8643 26.6375C15.0366 26.8792 14.0588 27 12.9309 27H2.43896V9.82837ZM12.9529 16.4202C13.2532 16.4202 13.5461 16.4312 13.8318 16.4531C14.3225 15.9844 14.5679 15.4497 14.5679 14.8491C14.5679 14.2266 14.3225 13.7468 13.8318 13.4099C13.3484 13.0657 12.6379 12.8936 11.7004 12.8936H5.92163V16.4202H12.9529ZM13.0188 23.9678C13.9563 23.9678 14.6667 23.7664 15.1501 23.3635C15.6409 22.9607 15.8862 22.3931 15.8862 21.6606C15.8862 20.9282 15.6409 20.3569 15.1501 19.9468C14.6667 19.5366 13.9563 19.3315 13.0188 19.3315H5.92163V23.9678H13.0188ZM22.5927 18.2549C22.5927 17.0464 22.8198 15.9185 23.2739 14.8711C23.728 13.8164 24.3908 12.9009 25.2624 12.1245C26.134 11.3481 27.2033 10.7366 28.4704 10.2898C29.7448 9.84302 31.2023 9.61963 32.843 9.61963C33.4362 9.61963 34.0295 9.65259 34.6228 9.71851C35.2233 9.7771 35.8129 9.87231 36.3916 10.0042C36.9775 10.136 37.5451 10.3044 38.0944 10.5095C38.6511 10.7073 39.1784 10.9453 39.6765 11.2236L38.0725 13.8604C37.7722 13.6846 37.4316 13.5271 37.0507 13.3879C36.6699 13.2415 36.2597 13.1206 35.8203 13.0254C35.3881 12.9229 34.9377 12.8459 34.4689 12.7947C34.0075 12.7434 33.5424 12.7178 33.0737 12.7178C31.9897 12.7178 31.0229 12.8569 30.1733 13.1353C29.3237 13.4062 28.6059 13.7908 28.02 14.2888C27.434 14.7795 26.9873 15.3691 26.6796 16.0576C26.372 16.7461 26.2182 17.5005 26.2182 18.3208C26.2182 19.1704 26.3793 19.9504 26.7016 20.6609C27.0239 21.3713 27.4816 21.9829 28.0749 22.4956C28.6682 23.0083 29.3859 23.4111 30.2282 23.7041C31.0705 23.9897 32.0117 24.1326 33.0517 24.1326C33.8793 24.1326 34.6374 24.041 35.3259 23.8579C36.0144 23.6675 36.6149 23.4001 37.1276 23.0559C37.6403 22.7117 38.0578 22.2979 38.3801 21.8145C38.7023 21.3237 38.9147 20.7744 39.0173 20.1665H33.0187V17.2991H42.1484V17.3101L42.1594 17.2991C42.3425 18.178 42.3974 19.0349 42.3242 19.8699C42.2583 20.6975 42.0678 21.4812 41.7529 22.2209C41.4453 22.9534 41.0205 23.6272 40.4785 24.2424C39.9365 24.8577 39.2883 25.3887 38.5339 25.8354C37.7795 26.2749 36.9226 26.6191 35.9631 26.8682C35.0036 27.1099 33.9526 27.2307 32.81 27.2307C31.2133 27.2307 29.7814 26.9963 28.5144 26.5276C27.2546 26.0588 26.1853 25.418 25.3063 24.605C24.4274 23.792 23.7536 22.8398 23.2849 21.7485C22.8234 20.6572 22.5927 19.4927 22.5927 18.2549ZM52.1178 12.8826H45.7787V9.82837H61.9396V12.8826H55.6005V27H52.1178V12.8826Z" fill="#FCFFFE"/>
<defs>
<clipPath id="clip0">
<rect width="33" height="36" fill="white" transform="translate(16 1)"/>
</clipPath>
<clipPath id="clip1">
<rect width="33" height="36" fill="white" transform="translate(16)"/>
</clipPath>
</defs>
</svg>
